<svg width="397" height="504" xmlns="http://www.w3.org/2000/svg" xmlns:xlink="http://www.w3.org/1999/xlink" xml:space="preserve" overflow="hidden"><defs><clipPath id="clip0"><rect x="2166" y="506" width="397" height="504"/></clipPath></defs><g clip-path="url(#clip0)" transform="translate(-2166 -506)"><path d="M2367.5 1010C2340.71 1010 2319 988.286 2319 961.5L2319 868.5C2319 841.714 2340.71 820 2367.5 820L2367.5 820C2394.29 820 2416 841.714 2416 868.5L2416 961.5C2416 988.286 2394.29 1010 2367.5 1010Z" fill="#DB4F4F" fill-rule="evenodd"/><path d="M2424.68 631.632C2499.1 648.445 2545.79 722.399 2528.98 796.813L2513.37 865.892C2496.56 940.306 2422.61 987 2348.19 970.188L2348.19 970.188C2273.78 953.375 2227.08 879.421 2243.9 805.007L2259.5 735.928C2276.32 661.514 2350.27 614.819 2424.68 631.632Z" fill="#D13838" fill-rule="evenodd"/><path d="M0 138.135C0 61.845 61.8449-2.20945e-14 138.135-4.41891e-14L208.954 0C285.244-2.20945e-14 347.089 61.845 347.089 138.135L347.089 138.135C347.089 214.424 285.244 276.269 208.954 276.269L138.135 276.269C61.8449 276.269 0 214.424 0 138.135Z" fill="#D13838" fill-rule="evenodd" transform="matrix(0.220383 0.975413 0.975413 -0.220383 2172.55 660.966)"/><path d="M2262.35 759.199C2286.3 752.369 2311.25 766.246 2318.08 790.196L2338.02 860.106C2344.85 884.056 2330.97 909.008 2307.02 915.839L2307.02 915.839C2283.07 922.67 2258.12 908.792 2251.29 884.843L2231.35 814.932C2224.52 790.982 2238.4 766.03 2262.35 759.199Z" fill="#9E313A" fill-rule="evenodd" fill-opacity="0.301961"/><path d="M2563 703.5C2563 753.482 2522.48 794 2472.5 794L2256.5 794C2206.52 794 2166 753.482 2166 703.5L2166 703.5C2166 653.518 2206.52 612.999 2256.5 612.999L2472.5 613C2522.48 613 2563 653.518 2563 703.5Z" fill="#9E313A" fill-rule="evenodd"/><path d="M2370.25 668.596C2357.37 674.799 2341.91 669.387 2335.7 656.509L2281.4 543.767C2275.2 530.889 2280.61 515.42 2293.49 509.218L2293.49 509.218C2306.37 503.015 2321.84 508.427 2328.04 521.305L2382.34 634.047C2388.54 646.925 2383.13 662.393 2370.25 668.596Z" fill="#9E313A" fill-rule="evenodd"/><path d="M2336.83 655.734C2324.99 646.772 2322.66 629.911 2331.62 618.073L2376.26 559.096C2385.22 547.258 2402.09 544.925 2413.92 553.886L2413.92 553.886C2425.76 562.848 2428.1 579.709 2419.13 591.547L2374.49 650.524C2365.53 662.362 2348.67 664.695 2336.83 655.734Z" fill="#9E313A" fill-rule="evenodd"/><path d="M2521.5 679.5C2501.48 638.952 2466.58 646.03 2402.5 644.5" stroke="#FFFFFF" stroke-width="36.6667" stroke-linecap="round" stroke-miterlimit="8" fill="none" fill-rule="evenodd"/><path d="M2232 647C2232 637.059 2240.06 629 2250 629L2275 629C2284.94 629 2293 637.059 2293 647L2293 647C2293 656.941 2284.94 665 2275 665L2250 665C2240.06 665 2232 656.941 2232 647Z" fill="#FFFFFF" fill-rule="evenodd"/><path d="M2482.5 831.5C2483.07 922.105 2410.5 945.333 2354.5 936.887" stroke="#FFFFFF" stroke-width="36.6667" stroke-linecap="round" stroke-miterlimit="8" stroke-opacity="0.278431" fill="none" fill-rule="evenodd"/><path d="M2437.14 611 2482.86 611 2492.26 612.9C2500.92 616.572 2507 625.169 2507 635.187L2507 970.405 2460.19 897.661 2413 971 2413 635.187C2413 625.169 2419.08 616.572 2427.74 612.9Z" fill="#4472C4" fill-rule="evenodd"/><path d="M2471 611 2482.93 611 2492.45 612.909 2496 615.289 2496 782 2471 782Z" fill="#ED7D31" fill-rule="evenodd"/></g></svg>